umbra-5.ufo
<glyph name="percent" format="1">
  <advance width="641"/>
  <unicode hex="0025"/>
  <outline>
    <contour>
      <point x="241" y="-162" type="line"/>
      <point x="551" y="338" type="line"/>
      <point x="681" y="338" type="line"/>
      <point x="371" y="-162" type="line"/>
    </contour>
    <contour>
      <point x="291" y="146" type="line"/>
      <point x="186" y="251" type="line"/>
      <point x="291" y="357" type="line"/>
      <point x="397" y="251" type="line"/>
    </contour>
    <contour>
      <point x="631" y="-190" type="line"/>
      <point x="526" y="-85" type="line"/>
      <point x="631" y="21" type="line"/>
      <point x="737" y="-85" type="line"/>
    </contour>
  </outline>
</glyph>
<glyph name="ampersand" format="1">
  <advance width="487"/>
  <unicode hex="0026"/>
  <outline>
    <contour>
      <point x="431" y="47" type="line"/>
      <point x="398" y="47" type="line" smooth="yes"/>
      <point x="350" y="47"/>
      <point x="316" y="36"/>
      <point x="316" y="-2" type="curve" smooth="yes"/>
      <point x="316" y="-33"/>
      <point x="343" y="-52"/>
      <point x="376" y="-52" type="curve" smooth="yes"/>
      <point x="399" y="-52"/>
      <point x="431" y="-39"/>
      <point x="431" y="-8" type="curve" smooth="yes"/>
    </contour>
    <contour>
      <point x="341" y="195" type="curve" smooth="yes"/>
      <point x="341" y="167"/>
      <point x="350" y="142"/>
      <point x="398" y="142" type="curve" smooth="yes"/>
      <point x="598" y="142" type="line"/>
      <point x="598" y="47" type="line"/>
      <point x="546" y="47" type="line"/>
      <point x="550" y="31"/>
      <point x="551" y="9"/>
      <point x="551" y="-35" type="curve" smooth="yes"/>
      <point x="551" y="-130"/>
      <point x="457" y="-177"/>
      <point x="368" y="-177" type="curve" smooth="yes"/>
      <point x="281" y="-177"/>
      <point x="176" y="-127"/>
      <point x="176" y="-10" type="curve" smooth="yes"/>
      <point x="176" y="46"/>
      <point x="207" y="85"/>
      <point x="261" y="105" type="curve"/>
      <point x="216" y="123"/>
      <point x="190" y="156"/>
      <point x="190" y="211" type="curve" smooth="yes"/>
      <point x="190" y="308"/>
      <point x="275" y="353"/>
      <point x="362" y="353" type="curve" smooth="yes"/>
      <point x="449" y="353"/>
      <point x="509" y="303"/>
      <point x="529" y="276" type="curve"/>
      <point x="489" y="186" type="line"/>
      <point x="449" y="224"/>
      <point x="411" y="233"/>
      <point x="383" y="233" type="curve" smooth="yes"/>
      <point x="355" y="233"/>
      <point x="341" y="218"/>
    </contour>
  </outline>
</glyph>
<glyph name="asterisk" format="1">
  <advance width="459"/>
  <unicode hex="002A"/>
  <outline>
    <contour>
      <point x="333" y="155" type="line"/>
      <point x="306" y="298" type="line"/>
      <point x="436" y="298" type="line"/>
      <point x="408" y="155" type="line"/>
      <point x="520" y="249" type="line"/>
      <point x="585" y="137" type="line"/>
      <point x="446" y="88" type="line"/>
      <point x="585" y="39" type="line"/>
      <point x="520" y="-73" type="line"/>
      <point x="408" y="21" type="line"/>
      <point x="436" y="-122" type="line"/>
      <point x="306" y="-122" type="line"/>
      <point x="333" y="21" type="line"/>
      <point x="221" y="-73" type="line"/>
      <point x="156" y="39" type="line"/>
      <point x="295" y="88" type="line"/>
      <point x="156" y="137" type="line"/>
      <point x="221" y="249" type="line"/>
    </contour>
  </outline>
</glyph>
<glyph name="four" format="1">
  <advance width="490"/>
  <unicode hex="0034"/>
  <outline>
    <contour>
      <point x="396" y="-67" type="line"/>
      <point x="319" y="-67"/>
      <point x="243" y="-67"/>
      <point x="166" y="-67" type="curve"/>
      <point x="146" y="3" type="line"/>
      <point x="436" y="338" type="line"/>
      <point x="536" y="338" type="line"/>
      <point x="536" y="238"/>
      <point x="536" y="138"/>
      <point x="536" y="38" type="curve"/>
      <point x="606" y="38" type="line"/>
      <point x="606" y="-67" type="line"/>
      <point x="536" y="-67" type="line"/>
      <point x="536" y="-162" type="line"/>
      <point x="396" y="-162" type="line"/>
    </contour>
    <contour>
      <point x="407" y="38" type="line"/>
      <point x="407" y="170" type="line"/>
      <point x="293" y="38" type="line"/>
    </contour>
  </outline>
</glyph>
<glyph name="six" format="1">
  <advance width="474"/>
  <unicode hex="0036"/>
  <outline>
    <contour>
      <point x="316" y="0" type="curve" smooth="yes"/>
      <point x="316" y="-28"/>
      <point x="335" y="-57"/>
      <point x="383" y="-57" type="curve" smooth="yes"/>
      <point x="431" y="-57"/>
      <point x="450" y="-28"/>
      <point x="450" y="0" type="curve" smooth="yes"/>
      <point x="450" y="28"/>
      <point x="431" y="57"/>
      <point x="383" y="57" type="curve" smooth="yes"/>
      <point x="335" y="57"/>
      <point x="316" y="28"/>
    </contour>
    <contour>
      <point x="580" y="0" type="curve" smooth="yes"/>
      <point x="580" y="-107"/>
      <point x="505" y="-172"/>
      <point x="388" y="-172" type="curve" smooth="yes"/>
      <point x="231" y="-172"/>
      <point x="176" y="-47"/>
      <point x="176" y="70" type="curve" smooth="yes"/>
      <point x="176" y="197"/>
      <point x="252" y="348"/>
      <point x="389" y="348" type="curve" smooth="yes"/>
      <point x="466" y="348"/>
      <point x="536" y="313"/>
      <point x="576" y="266" type="curve"/>
      <point x="535" y="160" type="line"/>
      <point x="495" y="198"/>
      <point x="458" y="228"/>
      <point x="410" y="228" type="curve" smooth="yes"/>
      <point x="342" y="228"/>
      <point x="313" y="169"/>
      <point x="307" y="101" type="curve"/>
      <point x="337" y="138"/>
      <point x="383" y="152"/>
      <point x="418" y="152" type="curve" smooth="yes"/>
      <point x="485" y="152"/>
      <point x="580" y="107"/>
    </contour>
  </outline>
</glyph>
<glyph name="eight" format="1">
  <advance width="464"/>
  <unicode hex="0038"/>
  <outline>
    <contour>
      <point x="301" y="-10" type="curve" smooth="yes"/>
      <point x="301" y="-38"/>
      <point x="325" y="-57"/>
      <point x="373" y="-57" type="curve" smooth="yes"/>
      <point x="421" y="-57"/>
      <point x="445" y="-38"/>
      <point x="445" y="-10" type="curve" smooth="yes"/>
      <point x="445" y="18"/>
      <point x="421" y="38"/>
      <point x="373" y="38" type="curve" smooth="yes"/>
      <point x="325" y="38"/>
      <point x="301" y="18"/>
    </contour>
    <contour>
      <point x="321" y="192" type="curve" smooth="yes"/>
      <point x="321" y="164"/>
      <point x="345" y="153"/>
      <point x="373" y="153" type="curve" smooth="yes"/>
      <point x="401" y="153"/>
      <point x="425" y="164"/>
      <point x="425" y="192" type="curve" smooth="yes"/>
      <point x="425" y="220"/>
      <point x="401" y="233"/>
      <point x="373" y="233" type="curve" smooth="yes"/>
      <point x="345" y="233"/>
      <point x="321" y="220"/>
    </contour>
    <contour>
      <point x="191" y="202" type="curve" smooth="yes"/>
      <point x="191" y="279"/>
      <point x="256" y="348"/>
      <point x="373" y="348" type="curve" smooth="yes"/>
      <point x="490" y="348"/>
      <point x="555" y="279"/>
      <point x="555" y="202" type="curve" smooth="yes"/>
      <point x="555" y="155"/>
      <point x="530" y="119"/>
      <point x="484" y="98" type="curve"/>
      <point x="540" y="79"/>
      <point x="575" y="42"/>
      <point x="575" y="-20" type="curve" smooth="yes"/>
      <point x="575" y="-127"/>
      <point x="490" y="-172"/>
      <point x="373" y="-172" type="curve" smooth="yes"/>
      <point x="256" y="-172"/>
      <point x="171" y="-117"/>
      <point x="171" y="-20" type="curve" smooth="yes"/>
      <point x="171" y="43"/>
      <point x="207" y="81"/>
      <point x="265" y="99" type="curve"/>
      <point x="217" y="122"/>
      <point x="191" y="160"/>
    </contour>
  </outline>
</glyph>
<glyph name="nine" format="1">
  <advance width="474"/>
  <unicode hex="0039"/>
  <outline>
    <contour>
      <point x="440" y="176" type="curve" smooth="yes"/>
      <point x="440" y="204"/>
      <point x="421" y="233"/>
      <point x="373" y="233" type="curve" smooth="yes"/>
      <point x="325" y="233"/>
      <point x="306" y="204"/>
      <point x="306" y="176" type="curve" smooth="yes"/>
      <point x="306" y="148"/>
      <point x="325" y="119"/>
      <point x="373" y="119" type="curve" smooth="yes"/>
      <point x="421" y="119"/>
      <point x="440" y="148"/>
    </contour>
    <contour>
      <point x="176" y="176" type="curve" smooth="yes"/>
      <point x="176" y="283"/>
      <point x="251" y="348"/>
      <point x="368" y="348" type="curve" smooth="yes"/>
      <point x="525" y="348"/>
      <point x="580" y="223"/>
      <point x="580" y="106" type="curve" smooth="yes"/>
      <point x="580" y="-21"/>
      <point x="504" y="-172"/>
      <point x="367" y="-172" type="curve" smooth="yes"/>
      <point x="290" y="-172"/>
      <point x="220" y="-137"/>
      <point x="180" y="-90" type="curve"/>
      <point x="221" y="16" type="line"/>
      <point x="261" y="-22"/>
      <point x="298" y="-52"/>
      <point x="346" y="-52" type="curve" smooth="yes"/>
      <point x="414" y="-52"/>
      <point x="443" y="7"/>
      <point x="449" y="75" type="curve"/>
      <point x="419" y="38"/>
      <point x="373" y="24"/>
      <point x="338" y="24" type="curve" smooth="yes"/>
      <point x="271" y="24"/>
      <point x="176" y="69"/>
    </contour>
  </outline>
</glyph>
<glyph name="equal" format="1">
  <advance width="560"/>
  <unicode hex="003D"/>
  <outline>
    <contour>
      <point x="226" y="-52" type="line"/>
      <point x="226" y="58" type="line"/>
      <point x="616" y="58" type="line"/>
      <point x="616" y="-52" type="line"/>
    </contour>
    <contour>
      <point x="226" y="128" type="line"/>
      <point x="226" y="238" type="line"/>
      <point x="616" y="238" type="line"/>
      <point x="616" y="128" type="line"/>
    </contour>
  </outline>
</glyph>
<glyph name="question" format="1">
  <advance width="464"/>
  <unicode hex="003F"/>
  <outline>
    <contour>
      <point x="308" y="42" type="line"/>
      <point x="278" y="142" type="line"/>
      <point x="348" y="142" type="line" smooth="yes"/>
      <point x="396" y="142"/>
      <point x="405" y="167"/>
      <point x="405" y="195" type="curve" smooth="yes"/>
      <point x="405" y="218"/>
      <point x="391" y="233"/>
      <point x="363" y="233" type="curve" smooth="yes"/>
      <point x="315" y="233"/>
      <point x="267" y="194"/>
      <point x="227" y="156" type="curve"/>
      <point x="187" y="266" type="line"/>
      <point x="237" y="323"/>
      <point x="297" y="353"/>
      <point x="364" y="353" type="curve" smooth="yes"/>
      <point x="471" y="353"/>
      <point x="556" y="308"/>
      <point x="556" y="211" type="curve" smooth="yes"/>
      <point x="556" y="136"/>
      <point x="508" y="103"/>
      <point x="433" y="92" type="curve"/>
      <point x="418" y="42" type="line"/>
    </contour>
    <contour>
      <point x="366" y="-190" type="line"/>
      <point x="261" y="-85" type="line"/>
      <point x="366" y="21" type="line"/>
      <point x="472" y="-85" type="line"/>
    </contour>
  </outline>
</glyph>
<glyph name="B" format="1">
  <advance width="502"/>
  <unicode hex="0042"/>
  <outline>
    <contour>
      <point x="186" y="-162" type="curve"/>
      <point x="186" y="338" type="line"/>
      <point x="259" y="338"/>
      <point x="333" y="338"/>
      <point x="406" y="338" type="curve" smooth="yes"/>
      <point x="523" y="338"/>
      <point x="598" y="283"/>
      <point x="598" y="196" type="curve" smooth="yes"/>
      <point x="598" y="142"/>
      <point x="575" y="112"/>
      <point x="535" y="96" type="curve"/>
      <point x="588" y="75"/>
      <point x="618" y="37"/>
      <point x="618" y="-19" type="curve" smooth="yes"/>
      <point x="618" y="-116"/>
      <point x="543" y="-162"/>
      <point x="426" y="-162" type="curve" smooth="yes"/>
      <point x="346" y="-162"/>
      <point x="266" y="-162"/>
    </contour>
    <contour>
      <point x="406" y="233" type="curve" smooth="yes"/>
      <point x="326" y="233" type="line"/>
      <point x="326" y="143" type="line"/>
      <point x="406" y="143" type="line" smooth="yes"/>
      <point x="434" y="143"/>
      <point x="453" y="158"/>
      <point x="453" y="186" type="curve" smooth="yes"/>
      <point x="453" y="214"/>
      <point x="434" y="233"/>
    </contour>
    <contour>
      <point x="326" y="48" type="line"/>
      <point x="326" y="-52" type="line"/>
      <point x="416" y="-52" type="line" smooth="yes"/>
      <point x="454" y="-52"/>
      <point x="473" y="-29"/>
      <point x="473" y="-1" type="curve" smooth="yes"/>
      <point x="473" y="27"/>
      <point x="454" y="48"/>
      <point x="416" y="48" type="curve" smooth="yes"/>
    </contour>
  </outline>
</glyph>
<glyph name="F" format="1">
  <advance width="450"/>
  <unicode hex="0046"/>
  <outline>
    <contour>
      <point x="186" y="-162" type="line"/>
      <point x="186" y="338" type="line"/>
      <point x="313" y="338"/>
      <point x="439" y="338"/>
      <point x="566" y="338" type="curve"/>
      <point x="566" y="218" type="line"/>
      <point x="326" y="218" type="line"/>
      <point x="326" y="128" type="line"/>
      <point x="536" y="128" type="line"/>
      <point x="536" y="3" type="line"/>
      <point x="326" y="3" type="line"/>
      <point x="326" y="-162" type="line"/>
    </contour>
  </outline>
</glyph>
<glyph name="G" format="1">
  <advance width="555"/>
  <unicode hex="0047"/>
  <outline>
    <contour>
      <point x="316" y="88" type="curve" smooth="yes"/>
      <point x="316" y="-5"/>
      <point x="389" y="-57"/>
      <point x="446" y="-57" type="curve" smooth="yes"/>
      <point x="480" y="-57"/>
      <point x="508" y="-50"/>
      <point x="531" y="-38" type="curve"/>
      <point x="531" y="33" type="line"/>
      <point x="421" y="33" type="line"/>
      <point x="421" y="128" type="line"/>
      <point x="661" y="128" type="line"/>
      <point x="661" y="-88" type="line"/>
      <point x="609" y="-140"/>
      <point x="527" y="-182"/>
      <point x="446" y="-182" type="curve" smooth="yes"/>
      <point x="291" y="-182"/>
      <point x="171" y="-61"/>
      <point x="171" y="88" type="curve" smooth="yes"/>
      <point x="171" y="237"/>
      <point x="281" y="358"/>
      <point x="456" y="358" type="curve" smooth="yes"/>
      <point x="537" y="358"/>
      <point x="584" y="336"/>
      <point x="616" y="304" type="curve"/>
      <point x="576" y="177" type="line"/>
      <point x="551" y="210"/>
      <point x="507" y="233"/>
      <point x="446" y="233" type="curve" smooth="yes"/>
      <point x="389" y="233"/>
      <point x="316" y="181"/>
    </contour>
  </outline>
</glyph>
<glyph name="J" format="1">
  <advance width="319"/>
  <unicode hex="004A"/>
  <outline>
    <contour>
      <point x="275" y="-152" type="curve" smooth="yes"/>
      <point x="275" y="338" type="line"/>
      <point x="415" y="338" type="line"/>
      <point x="415" y="-192" type="line" smooth="yes"/>
      <point x="415" y="-289"/>
      <point x="325" y="-344"/>
      <point x="248" y="-344" type="curve" smooth="yes"/>
      <point x="181" y="-344"/>
      <point x="141" y="-324"/>
      <point x="91" y="-277" type="curve"/>
      <point x="141" y="-172" type="line"/>
      <point x="181" y="-210"/>
      <point x="210" y="-224"/>
      <point x="228" y="-224" type="curve" smooth="yes"/>
      <point x="256" y="-224"/>
      <point x="275" y="-210"/>
    </contour>
  </outline>
</glyph>
<glyph name="Q" format="1">
  <advance width="610"/>
  <unicode hex="0051"/>
  <outline>
    <contour>
      <point x="171" y="88" type="curve" smooth="yes"/>
      <point x="171" y="237"/>
      <point x="271" y="358"/>
      <point x="446" y="358" type="curve" smooth="yes"/>
      <point x="621" y="358"/>
      <point x="721" y="237"/>
      <point x="721" y="88" type="curve" smooth="yes"/>
      <point x="721" y="-28"/>
      <point x="661" y="-127"/>
      <point x="552" y="-165" type="curve"/>
      <point x="706" y="-312" type="line"/>
      <point x="506" y="-312" type="line"/>
      <point x="392" y="-178" type="line"/>
      <point x="251" y="-156"/>
      <point x="171" y="-45"/>
    </contour>
    <contour>
      <point x="316" y="88" type="curve" smooth="yes"/>
      <point x="316" y="-5"/>
      <point x="384" y="-57"/>
      <point x="446" y="-57" type="curve" smooth="yes"/>
      <point x="508" y="-57"/>
      <point x="576" y="-5"/>
      <point x="576" y="88" type="curve" smooth="yes"/>
      <point x="576" y="181"/>
      <point x="508" y="233"/>
      <point x="446" y="233" type="curve" smooth="yes"/>
      <point x="384" y="233"/>
      <point x="316" y="181"/>
    </contour>
  </outline>
</glyph>
<glyph name="R" format="1">
  <advance width="515"/>
  <unicode hex="0052"/>
  <outline>
    <contour>
      <point x="186" y="-162" type="line"/>
      <point x="186" y="338" type="line"/>
      <point x="259" y="338"/>
      <point x="333" y="338"/>
      <point x="406" y="338" type="curve" smooth="yes"/>
      <point x="523" y="338"/>
      <point x="608" y="293"/>
      <point x="608" y="166" type="curve" smooth="yes"/>
      <point x="608" y="87"/>
      <point x="561" y="46"/>
      <point x="489" y="31" type="curve"/>
      <point x="636" y="-162" type="line"/>
      <point x="476" y="-162" type="line"/>
      <point x="326" y="28" type="line"/>
      <point x="326" y="-162" type="line"/>
    </contour>
    <contour>
      <point x="393" y="223" type="curve" smooth="yes"/>
      <point x="326" y="223" type="line"/>
      <point x="326" y="108" type="line"/>
      <point x="393" y="108" type="line" smooth="yes"/>
      <point x="431" y="108"/>
      <point x="463" y="118"/>
      <point x="463" y="166" type="curve" smooth="yes"/>
      <point x="463" y="214"/>
      <point x="431" y="223"/>
    </contour>
  </outline>
</glyph>
<glyph name="Y" format="1">
  <advance width="540"/>
  <unicode hex="0059"/>
  <outline>
    <contour>
      <point x="481" y="18" type="line"/>
      <point x="481" y="-162" type="line"/>
      <point x="341" y="-162" type="line"/>
      <point x="341" y="18" type="line"/>
      <point x="151" y="338" type="line"/>
      <point x="311" y="338" type="line"/>
      <point x="411" y="138" type="line"/>
      <point x="511" y="338" type="line"/>
      <point x="671" y="338" type="line"/>
    </contour>
  </outline>
</glyph>
<glyph name="Z" format="1">
  <advance width="580"/>
  <unicode hex="005A"/>
  <outline>
    <contour>
      <point x="221" y="223" type="line"/>
      <point x="221" y="338" type="line"/>
      <point x="711" y="338" type="line"/>
      <point x="415" y="-42" type="line"/>
      <point x="671" y="-42" type="line"/>
      <point x="671" y="-162" type="line"/>
      <point x="161" y="-162" type="line"/>
      <point x="461" y="223" type="line"/>
    </contour>
  </outline>
</glyph>
<glyph name="b" format="1">
  <advance width="499"/>
  <unicode hex="0062"/>
  <outline>
    <contour>
      <point x="181" y="-162" type="line"/>
      <point x="181" y="368" type="line"/>
      <point x="316" y="368" type="line"/>
      <point x="316" y="184" type="line"/>
      <point x="347" y="215"/>
      <point x="388" y="233"/>
      <point x="433" y="233" type="curve" smooth="yes"/>
      <point x="540" y="233"/>
      <point x="605" y="147"/>
      <point x="605" y="30" type="curve" smooth="yes"/>
      <point x="605" y="-87"/>
      <point x="540" y="-172"/>
      <point x="433" y="-172" type="curve" smooth="yes"/>
      <point x="388" y="-172"/>
      <point x="347" y="-152"/>
      <point x="316" y="-120" type="curve"/>
      <point x="316" y="-162" type="line"/>
    </contour>
    <contour>
      <point x="316" y="-29" type="line"/>
      <point x="335" y="-53"/>
      <point x="364" y="-67"/>
      <point x="393" y="-67" type="curve" smooth="yes"/>
      <point x="441" y="-67"/>
      <point x="470" y="-28"/>
      <point x="470" y="30" type="curve" smooth="yes"/>
      <point x="470" y="88"/>
      <point x="441" y="128"/>
      <point x="393" y="128" type="curve" smooth="yes"/>
      <point x="364" y="128"/>
      <point x="335" y="113"/>
      <point x="316" y="89" type="curve"/>
    </contour>
  </outline>
</glyph>
<glyph name="g" format="1">
  <advance width="489"/>
  <unicode hex="0067"/>
  <outline>
    <contour>
      <point x="455" y="-104" type="line"/>
      <point x="424" y="-134"/>
      <point x="383" y="-152"/>
      <point x="338" y="-152" type="curve" smooth="yes"/>
      <point x="231" y="-152"/>
      <point x="176" y="-67"/>
      <point x="176" y="40" type="curve" smooth="yes"/>
      <point x="176" y="147"/>
      <point x="231" y="233"/>
      <point x="338" y="233" type="curve" smooth="yes"/>
      <point x="383" y="233"/>
      <point x="424" y="217"/>
      <point x="455" y="188" type="curve"/>
      <point x="455" y="223" type="line"/>
      <point x="590" y="223" type="line"/>
      <point x="590" y="-202" type="line" smooth="yes"/>
      <point x="590" y="-299"/>
      <point x="495" y="-354"/>
      <point x="408" y="-354" type="curve" smooth="yes"/>
      <point x="331" y="-354"/>
      <point x="261" y="-329"/>
      <point x="201" y="-292" type="curve"/>
      <point x="241" y="-192" type="line"/>
      <point x="291" y="-230"/>
      <point x="350" y="-244"/>
      <point x="388" y="-244" type="curve" smooth="yes"/>
      <point x="436" y="-244"/>
      <point x="455" y="-230"/>
      <point x="455" y="-172" type="curve" smooth="yes"/>
    </contour>
    <contour>
      <point x="455" y="96" type="line"/>
      <point x="436" y="117"/>
      <point x="407" y="128"/>
      <point x="378" y="128" type="curve" smooth="yes"/>
      <point x="330" y="128"/>
      <point x="311" y="88"/>
      <point x="311" y="40" type="curve" smooth="yes"/>
      <point x="311" y="-8"/>
      <point x="330" y="-47"/>
      <point x="378" y="-47" type="curve" smooth="yes"/>
      <point x="407" y="-47"/>
      <point x="436" y="-36"/>
      <point x="455" y="-15" type="curve"/>
    </contour>
  </outline>
</glyph>
<glyph name="i" format="1">
  <advance width="271"/>
  <unicode hex="0069"/>
  <outline>
    <contour>
      <point x="209" y="-162" type="line"/>
      <point x="209" y="223" type="line"/>
      <point x="344" y="223" type="line"/>
      <point x="344" y="-162" type="line"/>
    </contour>
    <contour>
      <point x="276" y="280" type="line"/>
      <point x="181" y="375" type="line"/>
      <point x="276" y="471" type="line"/>
      <point x="372" y="375" type="line"/>
    </contour>
  </outline>
</glyph>
<glyph name="l" format="1">
  <advance width="215"/>
  <unicode hex="006C"/>
  <outline>
    <contour>
      <point x="181" y="-162" type="line"/>
      <point x="181" y="368" type="line"/>
      <point x="316" y="368" type="line"/>
      <point x="316" y="-162" type="line"/>
    </contour>
  </outline>
</glyph>
<glyph name="p" format="1">
  <advance width="499"/>
  <unicode hex="0070"/>
  <outline>
    <contour>
      <point x="181" y="223" type="line"/>
      <point x="316" y="223" type="line"/>
      <point x="316" y="181" type="line"/>
      <point x="347" y="213"/>
      <point x="388" y="233"/>
      <point x="433" y="233" type="curve" smooth="yes"/>
      <point x="540" y="233"/>
      <point x="605" y="148"/>
      <point x="605" y="31" type="curve" smooth="yes"/>
      <point x="605" y="-86"/>
      <point x="540" y="-172"/>
      <point x="433" y="-172" type="curve" smooth="yes"/>
      <point x="388" y="-172"/>
      <point x="347" y="-154"/>
      <point x="316" y="-123" type="curve"/>
      <point x="316" y="-307" type="line"/>
      <point x="181" y="-307" type="line"/>
    </contour>
    <contour>
      <point x="316" y="-28" type="line"/>
      <point x="335" y="-52"/>
      <point x="364" y="-67"/>
      <point x="393" y="-67" type="curve" smooth="yes"/>
      <point x="441" y="-67"/>
      <point x="470" y="-27"/>
      <point x="470" y="31" type="curve" smooth="yes"/>
      <point x="470" y="89"/>
      <point x="441" y="128"/>
      <point x="393" y="128" type="curve" smooth="yes"/>
      <point x="364" y="128"/>
      <point x="335" y="114"/>
      <point x="316" y="90" type="curve"/>
    </contour>
  </outline>
</glyph>
<glyph name="s" format="1">
  <advance width="374"/>
  <unicode hex="0073"/>
  <outline>
    <contour>
      <point x="355" y="-50" type="curve" smooth="yes"/>
      <point x="355" y="0"/>
      <point x="187" y="-4"/>
      <point x="187" y="116" type="curve" smooth="yes"/>
      <point x="187" y="213"/>
      <point x="262" y="238"/>
      <point x="339" y="238" type="curve" smooth="yes"/>
      <point x="376" y="238"/>
      <point x="426" y="223"/>
      <point x="476" y="176" type="curve"/>
      <point x="436" y="86" type="line"/>
      <point x="396" y="124"/>
      <point x="368" y="138"/>
      <point x="350" y="138" type="curve" smooth="yes"/>
      <point x="332" y="138"/>
      <point x="322" y="129"/>
      <point x="322" y="116" type="curve" smooth="yes"/>
      <point x="322" y="66"/>
      <point x="490" y="64"/>
      <point x="490" y="-40" type="curve" smooth="yes"/>
      <point x="490" y="-137"/>
      <point x="405" y="-177"/>
      <point x="328" y="-177" type="curve" smooth="yes"/>
      <point x="261" y="-177"/>
      <point x="211" y="-162"/>
      <point x="161" y="-115" type="curve"/>
      <point x="201" y="-25" type="line"/>
      <point x="241" y="-63"/>
      <point x="290" y="-77"/>
      <point x="308" y="-77" type="curve" smooth="yes"/>
      <point x="336" y="-77"/>
      <point x="355" y="-71"/>
    </contour>
  </outline>
</glyph>
<glyph name="t" format="1">
  <advance width="325"/>
  <unicode hex="0074"/>
  <outline>
    <contour>
      <point x="161" y="123" type="line"/>
      <point x="161" y="223" type="line"/>
      <point x="231" y="223" type="line"/>
      <point x="231" y="288" type="line"/>
      <point x="366" y="348" type="line"/>
      <point x="366" y="223" type="line"/>
      <point x="446" y="223" type="line"/>
      <point x="446" y="123" type="line"/>
      <point x="366" y="123" type="line"/>
      <point x="366" y="-162" type="line"/>
      <point x="231" y="-162" type="line"/>
      <point x="231" y="123" type="line"/>
    </contour>
  </outline>
</glyph>
<glyph name="v" format="1">
  <advance width="465"/>
  <unicode hex="0076"/>
  <outline>
    <contour>
      <point x="301" y="-162" type="line"/>
      <point x="151" y="223" type="line"/>
      <point x="296" y="223" type="line"/>
      <point x="377" y="-61" type="line"/>
      <point x="451" y="223" type="line"/>
      <point x="596" y="223" type="line"/>
      <point x="456" y="-162" type="line"/>
    </contour>
  </outline>
</glyph>
<glyph name="quotedblright" format="1">
  <advance width="430"/>
  <unicode hex="201D"/>
  <outline>
    <contour>
      <point x="396" y="78" type="line"/>
      <point x="396" y="338" type="line"/>
      <point x="526" y="338" type="line"/>
      <point x="526" y="198" type="line"/>
    </contour>
    <contour>
      <point x="186" y="78" type="line"/>
      <point x="186" y="338" type="line"/>
      <point x="316" y="338" type="line"/>
      <point x="316" y="198" type="line"/>
    </contour>
  </outline>
</glyph>
